<svg width="116" height="47" viewBox="0 0 116 47" fill="none" xmlns="http://www.w3.org/2000/svg">
<path fill-rule="evenodd" clip-rule="evenodd" d="M109.209 5.625H90.0032C86.252 5.625 83.2129 8.66413 83.2129 12.4153C83.2129 16.1665 86.252 19.2056 90.0032 19.2056H92.8159V39.5766C92.8159 43.3277 95.8578 46.3669 99.6062 46.3669C103.355 46.3669 106.397 43.3277 106.397 39.5766V19.2056H109.209C112.96 19.2056 116 16.1665 116 12.4153C116 8.66686 112.958 5.625 109.209 5.625Z" fill="#ED1941"/>
<path fill-rule="evenodd" clip-rule="evenodd" d="M76.5508 23.1836C79.0089 20.7256 80.5284 17.3318 80.5284 13.5806C80.5284 6.081 74.4474 0 66.9478 0C59.4482 0 53.3672 6.081 53.3672 13.5806C53.3672 17.3318 54.8868 20.7256 57.3448 23.1836C54.8868 25.6417 53.3672 29.0355 53.3672 32.7867C53.3672 40.2863 59.4482 46.3673 66.9478 46.3673C74.4474 46.3673 80.5284 40.2863 80.5284 32.7867C80.5284 29.0355 79.0089 25.6417 76.5508 23.1836Z" fill="#20BEC6"/>
<path fill-rule="evenodd" clip-rule="evenodd" d="M57.3448 23.1833C54.8868 20.7253 53.3672 17.3315 53.3672 13.5803C53.3672 6.33983 59.0335 0.425247 66.1703 0.0214844C65.0081 0.201541 63.8869 0.738982 62.9866 1.63926C60.7659 3.85996 60.7386 7.43381 62.9266 9.62177L88.1426 34.7751C90.7944 37.4269 90.7944 41.7264 88.1426 44.3781C85.4909 47.0299 81.1914 47.0299 78.5396 44.3781L57.3448 23.1833Z" fill="#ED1941"/>
<path fill-rule="evenodd" clip-rule="evenodd" d="M50.689 39.5766V12.4153C50.689 8.66413 47.6499 5.625 43.8987 5.625C40.1475 5.625 37.1084 8.66413 37.1084 12.4153V39.5766C37.1084 43.3277 40.1475 46.3669 43.8987 46.3669C47.6472 46.3669 50.689 43.3277 50.689 39.5766Z" fill="#ED1941"/>
<path fill-rule="evenodd" clip-rule="evenodd" d="M27.6332 46.3669C31.3844 46.3669 34.4235 43.3277 34.4235 39.5766C34.4235 35.8254 31.3844 32.7862 27.6332 32.7862H20.3709C16.6198 32.7862 13.5806 29.7471 13.5806 25.9959C13.5806 22.2448 16.6198 19.2056 20.3709 19.2056H27.6332C31.3844 19.2056 34.4235 16.1665 34.4235 12.4153C34.4235 8.66413 31.3844 5.625 27.6332 5.625H20.3709C9.12014 5.625 0 14.7451 0 25.9959C0 37.2467 9.12014 46.3669 20.3709 46.3669H27.6332Z" fill="#ED1941"/>
</svg>
