<svg width="127" height="131" viewBox="0 0 127 131" fill="none" xmlns="http://www.w3.org/2000/svg">
<rect x="12.1061" y="19.4712" width="68" height="98" rx="9" transform="rotate(-15 12.1061 19.4712)" fill="white" stroke="#F31143" stroke-width="2"/>
<rect x="37.6577" y="15.9632" width="68" height="98" rx="9" fill="white" stroke="#F31143" stroke-width="2"/>
<rect x="59.3162" y="16.5177" width="68" height="98" rx="9" transform="rotate(15 59.3162 16.5177)" fill="white" stroke="#F31143" stroke-width="2"/>
<path d="M5.87402 103.075V111H2.16797V89.6719H10.3271C12.71 89.6719 14.5996 90.292 15.9961 91.5322C17.4023 92.7725 18.1055 94.4131 18.1055 96.4541C18.1055 98.5439 17.417 100.17 16.04 101.332C14.6729 102.494 12.7539 103.075 10.2832 103.075H5.87402ZM5.87402 100.102H10.3271C11.6455 100.102 12.6514 99.7939 13.3447 99.1787C14.0381 98.5537 14.3848 97.6553 14.3848 96.4834C14.3848 95.3311 14.0332 94.4131 13.3301 93.7295C12.627 93.0361 11.6602 92.6797 10.4297 92.6602H5.87402V100.102ZM39.6289 100.893C39.6289 102.982 39.2676 104.818 38.5449 106.4C37.8223 107.973 36.7871 109.184 35.4395 110.033C34.1016 110.873 32.5586 111.293 30.8105 111.293C29.082 111.293 27.5391 110.873 26.1816 110.033C24.834 109.184 23.7891 107.978 23.0469 106.415C22.3145 104.853 21.9434 103.051 21.9336 101.01V99.8086C21.9336 97.7285 22.2998 95.8926 23.0322 94.3008C23.7744 92.709 24.8145 91.4932 26.1523 90.6533C27.5 89.8037 29.043 89.3789 30.7812 89.3789C32.5195 89.3789 34.0576 89.7988 35.3955 90.6387C36.7432 91.4688 37.7832 92.6699 38.5156 94.2422C39.248 95.8047 39.6191 97.626 39.6289 99.7061V100.893ZM35.9229 99.7793C35.9229 97.416 35.4736 95.6045 34.5752 94.3447C33.6865 93.085 32.4219 92.4551 30.7812 92.4551C29.1797 92.4551 27.9248 93.085 27.0166 94.3447C26.1182 95.5947 25.6592 97.3672 25.6396 99.6621V100.893C25.6396 103.236 26.0938 105.048 27.002 106.327C27.9199 107.606 29.1895 108.246 30.8105 108.246C32.4512 108.246 33.7109 107.621 34.5898 106.371C35.4785 105.121 35.9229 103.295 35.9229 100.893V99.7793ZM50.6934 101.786L48.2764 104.35V111H44.5703V89.6719H48.2764V99.6768L50.3271 97.1426L56.5674 89.6719H61.0498L53.125 99.1201L61.5039 111H57.1094L50.6934 101.786ZM77.2119 101.479H68.4521V108.041H78.6914V111H64.7461V89.6719H78.5889V92.6602H68.4521V98.5488H77.2119V101.479ZM90.7959 102.782H86.665V111H82.959V89.6719H90.459C92.9199 89.6719 94.8193 90.2236 96.1572 91.3271C97.4951 92.4307 98.1641 94.0273 98.1641 96.1172C98.1641 97.543 97.8174 98.7393 97.124 99.7061C96.4404 100.663 95.4834 101.4 94.2529 101.918L99.043 110.81V111H95.0732L90.7959 102.782ZM86.665 99.8086H90.4736C91.7236 99.8086 92.7002 99.4961 93.4033 98.8711C94.1064 98.2363 94.458 97.3721 94.458 96.2783C94.458 95.1357 94.1309 94.252 93.4766 93.627C92.832 93.002 91.8652 92.6797 90.5762 92.6602H86.665V99.8086Z" fill="#F31143"/>
<path d="M5.87402 103.075V102.075H4.87402V103.075H5.87402ZM5.87402 111V112H6.87402V111H5.87402ZM2.16797 111H1.16797V112H2.16797V111ZM2.16797 89.6719V88.6719H1.16797V89.6719H2.16797ZM15.9961 91.5322L15.3321 92.2799L15.3346 92.2822L15.9961 91.5322ZM16.04 101.332L15.3951 100.568L15.3924 100.57L16.04 101.332ZM5.87402 100.102H4.87402V101.102H5.87402V100.102ZM13.3447 99.1787L14.0085 99.9267L14.0143 99.9215L13.3447 99.1787ZM13.3301 93.7295L12.6279 94.4415L12.633 94.4465L13.3301 93.7295ZM10.4297 92.6602L10.4456 91.6603L10.4376 91.6602H10.4297V92.6602ZM5.87402 92.6602V91.6602H4.87402V92.6602H5.87402ZM4.87402 103.075V111H6.87402V103.075H4.87402ZM5.87402 110H2.16797V112H5.87402V110ZM3.16797 111V89.6719H1.16797V111H3.16797ZM2.16797 90.6719H10.3271V88.6719H2.16797V90.6719ZM10.3271 90.6719C12.5348 90.6719 14.1647 91.2431 15.3321 92.2799L16.6601 90.7845C15.0346 89.3408 12.8851 88.6719 10.3271 88.6719V90.6719ZM15.3346 92.2822C16.5051 93.3145 17.1055 94.6715 17.1055 96.4541H19.1055C19.1055 94.1547 18.2996 92.2304 16.6575 90.7822L15.3346 92.2822ZM17.1055 96.4541C17.1055 98.3017 16.5097 99.6271 15.3951 100.568L16.685 102.096C18.3243 100.713 19.1055 98.7861 19.1055 96.4541H17.1055ZM15.3924 100.57C14.264 101.529 12.6058 102.075 10.2832 102.075V104.075C12.902 104.075 15.0817 103.459 16.6877 102.094L15.3924 100.57ZM10.2832 102.075H5.87402V104.075H10.2832V102.075ZM5.87402 101.102H10.3271V99.1016H5.87402V101.102ZM10.3271 101.102C11.7877 101.102 13.0678 100.761 14.0084 99.9267L12.681 98.4307C12.2349 98.8265 11.5033 99.1016 10.3271 99.1016V101.102ZM14.0143 99.9215C14.9694 99.0605 15.3848 97.8609 15.3848 96.4834H13.3848C13.3848 97.4496 13.1067 98.0469 12.6752 98.4359L14.0143 99.9215ZM15.3848 96.4834C15.3848 95.1121 14.9578 93.9173 14.0272 93.0125L12.633 94.4465C13.1086 94.9089 13.3848 95.55 13.3848 96.4834H15.3848ZM14.0322 93.0175C13.1034 92.1016 11.8668 91.6828 10.4456 91.6603L10.4138 93.66C11.4535 93.6765 12.1505 93.9707 12.6279 94.4415L14.0322 93.0175ZM10.4297 91.6602H5.87402V93.6602H10.4297V91.6602ZM4.87402 92.6602V100.102H6.87402V92.6602H4.87402ZM38.5449 106.4L39.4535 106.818L39.4545 106.816L38.5449 106.4ZM35.4395 110.033L35.9711 110.88L35.9728 110.879L35.4395 110.033ZM26.1816 110.033L25.6483 110.879L25.6555 110.884L26.1816 110.033ZM23.0469 106.415L22.1414 106.839L22.1436 106.844L23.0469 106.415ZM21.9336 101.01H20.9336L20.9336 101.015L21.9336 101.01ZM23.0322 94.3008L22.1259 93.8782L22.1238 93.8828L23.0322 94.3008ZM26.1523 90.6533L26.684 91.5003L26.6856 91.4992L26.1523 90.6533ZM35.3955 90.6387L34.8638 91.4857L34.8711 91.4901L35.3955 90.6387ZM38.5156 94.2422L37.6091 94.6645L37.6102 94.6666L38.5156 94.2422ZM39.6289 99.7061H40.6289L40.6289 99.7014L39.6289 99.7061ZM34.5752 94.3447L33.758 94.9212L33.761 94.9254L34.5752 94.3447ZM27.0166 94.3447L26.2054 93.7599L26.2046 93.7611L27.0166 94.3447ZM25.6396 99.6621L24.6396 99.6536V99.6621H25.6396ZM27.002 106.327L26.1865 106.906L26.1895 106.91L27.002 106.327ZM34.5898 106.371L33.7748 105.792L33.7718 105.796L34.5898 106.371ZM38.6289 100.893C38.6289 102.867 38.2876 104.557 37.6353 105.985L39.4545 106.816C40.2475 105.08 40.6289 103.097 40.6289 100.893H38.6289ZM37.6363 105.983C36.9873 107.395 36.0757 108.45 34.9062 109.187L35.9728 110.879C37.4985 109.917 38.6572 108.551 39.4535 106.818L37.6363 105.983ZM34.9078 109.186C33.7459 109.916 32.3912 110.293 30.8105 110.293V112.293C32.726 112.293 34.4572 111.83 35.9711 110.88L34.9078 109.186ZM30.8105 110.293C29.2519 110.293 27.8941 109.917 26.7078 109.183L25.6555 110.884C27.1841 111.829 28.9121 112.293 30.8105 112.293V110.293ZM26.7149 109.187C25.5414 108.447 24.6183 107.393 23.9502 105.986L22.1436 106.844C22.9599 108.563 24.1266 109.92 25.6483 110.879L26.7149 109.187ZM23.9523 105.991C23.2917 104.581 22.9428 102.927 22.9336 101.005L20.9336 101.015C20.9439 103.174 21.3372 105.124 22.1414 106.839L23.9523 105.991ZM22.9336 101.01V99.8086H20.9336V101.01H22.9336ZM22.9336 99.8086C22.9336 97.8462 23.2788 96.1572 23.9407 94.7188L22.1238 93.8828C21.3208 95.6279 20.9336 97.6109 20.9336 99.8086H22.9336ZM23.9386 94.7234C24.6088 93.2859 25.5272 92.2265 26.684 91.5003L25.6207 89.8064C24.1017 90.7599 22.9401 92.132 22.1259 93.8782L23.9386 94.7234ZM26.6856 91.4992C27.8592 90.7594 29.2139 90.3789 30.7812 90.3789V88.3789C28.8721 88.3789 27.1408 88.848 25.619 89.8074L26.6856 91.4992ZM30.7812 90.3789C32.351 90.3789 33.701 90.7557 34.8638 91.4856L35.9272 89.7917C34.4142 88.842 32.6881 88.3789 30.7812 88.3789V90.3789ZM34.8711 91.4901C36.0363 92.2078 36.9511 93.2518 37.6092 94.6645L39.4221 93.8199C38.6153 92.088 37.4501 90.7297 35.9199 89.7872L34.8711 91.4901ZM37.6102 94.6666C38.2697 96.0735 38.6197 97.7465 38.6289 99.7107L40.6289 99.7014C40.6186 97.5055 40.2264 95.5358 39.4211 93.8178L37.6102 94.6666ZM38.6289 99.7061V100.893H40.6289V99.7061H38.6289ZM36.9229 99.7793C36.9229 97.3108 36.4572 95.2614 35.3894 93.7641L33.761 94.9254C34.4901 95.9476 34.9229 97.5212 34.9229 99.7793H36.9229ZM35.3923 93.7683C34.3026 92.2235 32.7223 91.4551 30.7812 91.4551V93.4551C32.1214 93.4551 33.0705 93.9465 33.7581 94.9212L35.3923 93.7683ZM30.7812 91.4551C28.8702 91.4551 27.3084 92.2299 26.2054 93.7599L27.8278 94.9295C28.5412 93.94 29.4892 93.4551 30.7812 93.4551V91.4551ZM26.2046 93.7611C25.1397 95.2427 24.6602 97.2481 24.6397 99.6536L26.6396 99.6706C26.6582 97.4863 27.0967 95.9467 27.8286 94.9284L26.2046 93.7611ZM24.6396 99.6621V100.893H26.6396V99.6621H24.6396ZM24.6396 100.893C24.6396 103.347 25.1123 105.393 26.1865 106.906L27.8174 105.748C27.0752 104.703 26.6396 103.126 26.6396 100.893H24.6396ZM26.1895 106.91C27.3018 108.46 28.8785 109.246 30.8105 109.246V107.246C29.5004 107.246 28.5381 106.753 27.8144 105.744L26.1895 106.91ZM30.8105 109.246C32.7485 109.246 34.326 108.485 35.4079 106.946L33.7718 105.796C33.0958 106.757 32.1538 107.246 30.8105 107.246V109.246ZM35.4049 106.951C36.4646 105.46 36.9229 103.393 36.9229 100.893H34.9229C34.9229 103.196 34.4925 104.782 33.7748 105.792L35.4049 106.951ZM36.9229 100.893V99.7793H34.9229V100.893H36.9229ZM50.6934 101.786L51.514 101.215L50.8104 100.204L49.9658 101.1L50.6934 101.786ZM48.2764 104.35L47.5488 103.664L47.2764 103.953V104.35H48.2764ZM48.2764 111V112H49.2764V111H48.2764ZM44.5703 111H43.5703V112H44.5703V111ZM44.5703 89.6719V88.6719H43.5703V89.6719H44.5703ZM48.2764 89.6719H49.2764V88.6719H48.2764V89.6719ZM48.2764 99.6768H47.2764V102.502L49.0537 100.306L48.2764 99.6768ZM50.3271 97.1426L49.5597 96.5015L49.5547 96.5075L49.5498 96.5135L50.3271 97.1426ZM56.5674 89.6719V88.6719H56.0997L55.7999 89.0308L56.5674 89.6719ZM61.0498 89.6719L61.816 90.3145L63.1938 88.6719H61.0498V89.6719ZM53.125 99.1201L52.3588 98.4775L51.8641 99.0673L52.3078 99.6965L53.125 99.1201ZM61.5039 111V112H63.4329L62.3211 110.424L61.5039 111ZM57.1094 111L56.2887 111.571L56.5872 112H57.1094V111ZM49.9658 101.1L47.5488 103.664L49.004 105.036L51.4209 102.472L49.9658 101.1ZM47.2764 104.35V111H49.2764V104.35H47.2764ZM48.2764 110H44.5703V112H48.2764V110ZM45.5703 111V89.6719H43.5703V111H45.5703ZM44.5703 90.6719H48.2764V88.6719H44.5703V90.6719ZM47.2764 89.6719V99.6768H49.2764V89.6719H47.2764ZM49.0537 100.306L51.1045 97.7716L49.5498 96.5135L47.499 99.0477L49.0537 100.306ZM51.0946 97.7837L57.3349 90.3129L55.7999 89.0308L49.5597 96.5015L51.0946 97.7837ZM56.5674 90.6719H61.0498V88.6719H56.5674V90.6719ZM60.2836 89.0292L52.3588 98.4775L53.8912 99.7628L61.816 90.3145L60.2836 89.0292ZM52.3078 99.6965L60.6867 111.576L62.3211 110.424L53.9422 98.5438L52.3078 99.6965ZM61.5039 110H57.1094V112H61.5039V110ZM57.93 110.429L51.514 101.215L49.8727 102.358L56.2887 111.571L57.93 110.429ZM77.2119 101.479V102.479H78.2119V101.479H77.2119ZM68.4521 101.479V100.479H67.4521V101.479H68.4521ZM68.4521 108.041H67.4521V109.041H68.4521V108.041ZM78.6914 108.041H79.6914V107.041H78.6914V108.041ZM78.6914 111V112H79.6914V111H78.6914ZM64.7461 111H63.7461V112H64.7461V111ZM64.7461 89.6719V88.6719H63.7461V89.6719H64.7461ZM78.5889 89.6719H79.5889V88.6719H78.5889V89.6719ZM78.5889 92.6602V93.6602H79.5889V92.6602H78.5889ZM68.4521 92.6602V91.6602H67.4521V92.6602H68.4521ZM68.4521 98.5488H67.4521V99.5488H68.4521V98.5488ZM77.2119 98.5488H78.2119V97.5488H77.2119V98.5488ZM77.2119 100.479H68.4521V102.479H77.2119V100.479ZM67.4521 101.479V108.041H69.4521V101.479H67.4521ZM68.4521 109.041H78.6914V107.041H68.4521V109.041ZM77.6914 108.041V111H79.6914V108.041H77.6914ZM78.6914 110H64.7461V112H78.6914V110ZM65.7461 111V89.6719H63.7461V111H65.7461ZM64.7461 90.6719H78.5889V88.6719H64.7461V90.6719ZM77.5889 89.6719V92.6602H79.5889V89.6719H77.5889ZM78.5889 91.6602H68.4521V93.6602H78.5889V91.6602ZM67.4521 92.6602V98.5488H69.4521V92.6602H67.4521ZM68.4521 99.5488H77.2119V97.5488H68.4521V99.5488ZM76.2119 98.5488V101.479H78.2119V98.5488H76.2119ZM90.7959 102.782L91.6829 102.321L91.4027 101.782H90.7959V102.782ZM86.665 102.782V101.782H85.665V102.782H86.665ZM86.665 111V112H87.665V111H86.665ZM82.959 111H81.959V112H82.959V111ZM82.959 89.6719V88.6719H81.959V89.6719H82.959ZM97.124 99.7061L96.3114 99.1233L96.3103 99.1248L97.124 99.7061ZM94.2529 101.918L93.8652 100.996L92.8504 101.423L93.3726 102.392L94.2529 101.918ZM99.043 110.81H100.043V110.557L99.9233 110.335L99.043 110.81ZM99.043 111V112H100.043V111H99.043ZM95.0732 111L94.1862 111.462L94.4664 112H95.0732V111ZM86.665 99.8086H85.665V100.809H86.665V99.8086ZM93.4033 98.8711L94.0677 99.6185L94.0734 99.6134L93.4033 98.8711ZM93.4766 93.627L92.7804 94.3449L92.7858 94.3501L93.4766 93.627ZM90.5762 92.6602L90.5913 91.6603L90.5837 91.6602H90.5762V92.6602ZM86.665 92.6602V91.6602H85.665V92.6602H86.665ZM90.7959 101.782H86.665V103.782H90.7959V101.782ZM85.665 102.782V111H87.665V102.782H85.665ZM86.665 110H82.959V112H86.665V110ZM83.959 111V89.6719H81.959V111H83.959ZM82.959 90.6719H90.459V88.6719H82.959V90.6719ZM90.459 90.6719C92.7833 90.6719 94.4242 91.194 95.5209 92.0986L96.7935 90.5557C95.2145 89.2533 93.0565 88.6719 90.459 88.6719V90.6719ZM95.5209 92.0986C96.581 92.973 97.1641 94.2583 97.1641 96.1172H99.1641C99.1641 93.7964 98.4092 91.8884 96.7935 90.5557L95.5209 92.0986ZM97.1641 96.1172C97.1641 97.3764 96.8603 98.3579 96.3114 99.1233L97.9366 100.289C98.7745 99.1206 99.1641 97.7096 99.1641 96.1172H97.1641ZM96.3103 99.1248C95.7484 99.9115 94.9485 100.541 93.8652 100.996L94.6407 102.84C96.0183 102.26 97.1325 101.415 97.9378 100.287L96.3103 99.1248ZM93.3726 102.392L98.1626 111.284L99.9233 110.335L95.1333 101.444L93.3726 102.392ZM98.043 110.81V111H100.043V110.81H98.043ZM99.043 110H95.0732V112H99.043V110ZM95.9603 110.538L91.6829 102.321L89.9089 103.244L94.1862 111.462L95.9603 110.538ZM86.665 100.809H90.4736V98.8086H86.665V100.809ZM90.4736 100.809C91.8867 100.809 93.1284 100.453 94.0677 99.6185L92.739 98.1237C92.272 98.5388 91.5606 98.8086 90.4736 98.8086V100.809ZM94.0734 99.6134C95.0199 98.7589 95.458 97.6068 95.458 96.2783H93.458C93.458 97.1373 93.193 97.7137 92.7332 98.1288L94.0734 99.6134ZM95.458 96.2783C95.458 94.9387 95.0681 93.7643 94.1673 92.9038L92.7858 94.3501C93.1936 94.7396 93.458 95.3328 93.458 96.2783H95.458ZM94.1727 92.9091C93.279 92.0424 92.0244 91.682 90.5913 91.6603L90.561 93.66C91.706 93.6774 92.3851 93.9615 92.7804 94.3449L94.1727 92.9091ZM90.5762 91.6602H86.665V93.6602H90.5762V91.6602ZM85.665 92.6602V99.8086H87.665V92.6602H85.665Z" fill="white"/>
</svg>
